<?xml version="1.0" standalone="no"?>
<!DOCTYPE svg PUBLIC "-//W3C//DTD SVG 20010904//EN"
 "http://www.w3.org/TR/2001/REC-SVG-20010904/DTD/svg10.dtd">
<svg version="1.0" xmlns="http://www.w3.org/2000/svg"
 width="512.000000pt" height="512.000000pt" viewBox="0 0 512.000000 512.000000"
 preserveAspectRatio="xMidYMid meet">

<g transform="translate(0.000000,512.000000) scale(0.100000,-0.100000)"
fill="#000000" stroke="none">
<path d="M1770 4675 c-187 -46 -354 -186 -431 -361 l-20 -44 -444 0 -445 0 0
-215 0 -215 443 0 444 0 38 -77 c56 -114 170 -226 285 -281 107 -50 172 -66
280 -66 108 0 173 16 280 66 115 55 229 167 285 281 l38 77 1084 0 1083 0 0
215 0 215 -1084 0 -1083 0 -31 63 c-85 170 -246 300 -425 342 -76 18 -223 18
-297 0z m255 -438 c114 -63 140 -224 52 -324 -127 -145 -367 -55 -367 137 0
169 167 268 315 187z"/>
<path d="M3065 3186 c-189 -44 -354 -175 -438 -348 l-32 -68 -1082 0 -1083 0
0 -210 0 -210 1083 0 1082 0 33 -68 c64 -133 176 -242 311 -304 304 -140 670
-12 822 286 l44 86 443 0 442 0 0 210 0 210 -442 0 -443 0 -44 86 c-74 146
-201 255 -363 311 -90 31 -241 40 -333 19z m234 -439 c24 -12 57 -42 75 -66
28 -39 31 -49 31 -120 0 -68 -3 -82 -27 -117 -15 -21 -44 -50 -65 -64 -31 -21
-48 -25 -114 -25 -71 0 -81 3 -120 31 -66 48 -91 103 -87 186 3 55 9 75 33
109 61 86 182 115 274 66z"/>
<path d="M1609 1700 c-124 -20 -259 -89 -350 -180 -55 -55 -122 -155 -139
-206 l-12 -34 -339 0 -339 0 0 -215 0 -215 338 0 337 0 35 -73 c44 -92 176
-228 265 -274 178 -93 391 -98 570 -14 131 61 254 185 307 308 l23 53 1193 0
1192 0 0 215 0 215 -1189 0 -1190 0 -43 83 c-78 149 -218 266 -379 315 -79 24
-203 34 -280 22z m212 -454 c55 -37 89 -93 96 -160 5 -47 2 -64 -22 -111 -64
-131 -219 -161 -329 -63 -113 98 -89 274 45 342 69 35 149 32 210 -8z"/>
</g>
</svg>
