<?xml version="1.0" standalone="no"?>
<!DOCTYPE svg PUBLIC "-//W3C//DTD SVG 20010904//EN"
 "http://www.w3.org/TR/2001/REC-SVG-20010904/DTD/svg10.dtd">
<svg version="1.0" xmlns="http://www.w3.org/2000/svg"
 width="96.000000pt" height="96.000000pt" viewBox="0 0 96.000000 96.000000"
 preserveAspectRatio="xMidYMid meet">

<g transform="translate(0.000000,96.000000) scale(0.100000,-0.100000)"
fill="#000000" stroke="none">
<path d="M89 811 l-29 -29 0 -302 0 -302 29 -29 29 -29 362 0 362 0 29 29 29
29 0 302 0 302 -29 29 -29 29 -362 0 -362 0 -29 -29z m748 -266 l2 -230 -104
110 -105 110 -59 -65 -60 -65 -89 95 -90 95 -29 -32 c-15 -18 -62 -71 -103
-118 l-75 -85 -3 197 c-1 109 0 203 3 210 3 11 76 13 357 11 l353 -3 2 -230z
m-350 -202 l151 -158 -246 -3 c-136 -1 -252 0 -259 3 -7 2 -13 21 -13 43 0 34
11 50 103 154 56 65 104 118 107 118 3 0 73 -70 157 -157z m253 -10 c120 -129
125 -146 39 -151 l-57 -3 -78 86 c-44 48 -80 90 -82 93 -3 10 57 82 68 82 5 0
54 -48 110 -107z"/>
<path d="M620 700 c-11 -11 -20 -29 -20 -40 0 -11 9 -29 20 -40 11 -11 29 -20
40 -20 11 0 29 9 40 20 11 11 20 29 20 40 0 11 -9 29 -20 40 -11 11 -29 20
-40 20 -11 0 -29 -9 -40 -20z"/>
</g>
</svg>
