<?xml version="1.0" standalone="no"?>
<!DOCTYPE svg PUBLIC "-//W3C//DTD SVG 20010904//EN"
 "http://www.w3.org/TR/2001/REC-SVG-20010904/DTD/svg10.dtd">
<svg version="1.0" xmlns="http://www.w3.org/2000/svg"
 width="225.000000pt" height="225.000000pt" viewBox="0 0 225.000000 225.000000"
 preserveAspectRatio="xMidYMid meet">

<g transform="translate(0.000000,225.000000) scale(0.100000,-0.100000)"
fill="#000000" stroke="none">
<path d="M665 2050 c-194 -27 -367 -165 -436 -349 -34 -93 -41 -210 -37 -646
4 -357 7 -417 22 -465 60 -184 192 -317 376 -375 46 -15 106 -19 358 -23 l303
-4 117 113 c64 63 204 200 312 304 107 105 237 231 288 280 l93 90 -4 320 c-4
350 -5 357 -69 478 -61 115 -165 202 -307 256 l-66 25 -445 2 c-245 1 -472 -1
-505 -6z m908 -101 c195 -30 349 -182 377 -375 5 -38 10 -174 10 -301 l0 -233
-158 0 c-174 0 -221 -9 -327 -62 -32 -17 -87 -57 -120 -89 -72 -69 -123 -91
-220 -92 -89 -2 -166 22 -234 74 -52 40 -88 48 -109 27 -24 -24 -13 -56 34
-97 87 -76 208 -117 328 -109 58 3 65 2 61 -13 -21 -66 -35 -172 -35 -271 l0
-118 -217 0 c-120 0 -247 5 -283 10 -197 31 -351 187 -380 385 -12 90 -13 788
0 880 27 192 182 352 370 384 80 13 816 13 903 0z"/>
<path d="M717 1389 c-21 -12 -47 -61 -47 -89 0 -87 109 -132 171 -71 63 63 20
171 -68 171 -21 0 -46 -5 -56 -11z"/>
<path d="M1449 1371 c-71 -72 -6 -186 95 -167 115 22 94 196 -24 196 -33 0
-48 -6 -71 -29z"/>
</g>
</svg>
